<svg width="183" height="183" viewBox="0 0 183 183" fill="none" xmlns="http://www.w3.org/2000/svg">
<g clip-path="url(#clip0_412_90)">
<path d="M180.319 75.764C178.112 70.9175 173.579 64.774 167.531 58.3187C170.419 37.9373 166.157 21.3768 154.242 13.6546C134.293 0.744069 37.5072 -15.1226 8.76239 29.4811C-19.5411 73.4112 27.0965 147.094 58.2986 175.026C77.6958 192.391 112.579 178.425 135.637 161.543C170.851 135.762 190.479 98.086 180.319 75.7741" fill="white"/>
<path d="M176.598 77.4633C174.471 72.8079 169.667 66.4129 163.128 59.6259C160.39 76.4277 152.747 95.9242 140.561 114.838C114.163 155.791 76.4822 178.475 56.413 165.464C65.6502 185.765 100.042 182.507 133.23 158.215C166.428 133.902 185.845 97.7542 176.608 77.4533" fill="#FF1C86"/>
<path d="M126.349 70.9074C119.038 70.9074 117.523 76.5985 117.523 83.2348C117.523 89.8711 119.038 95.532 126.359 95.532C133.681 95.532 135.206 89.8409 135.206 83.2348C135.206 76.6287 133.671 70.9074 126.359 70.9074H126.349ZM74.1554 28.4655C66.4527 34.1063 60.8963 43.4373 56.9847 54.6687C59.111 55.7747 60.5954 57.9667 60.5954 60.5307C60.5954 64.2008 57.6266 67.167 53.9859 67.167C53.8054 67.167 53.6248 67.1268 53.4443 67.1167C52.9829 69.1579 52.5717 71.2493 52.1906 73.3508H59.6827V77.423C59.6827 84.2504 56.5635 87.7897 53.8154 90.9369C51.7192 93.3099 49.9038 95.3812 49.9038 98.3876C49.9038 102.148 52.6921 104.23 57.757 104.23C60.3346 104.23 64.2361 103.345 67.7766 102.017L69.3512 110.494C64.4267 112.203 58.6396 113.209 55.0891 113.199C53.7853 113.199 51.5286 113.098 49.0814 112.545C49.2319 135.963 52.5517 157.018 56.4131 165.494C76.4923 178.495 114.163 155.821 140.561 114.868C152.747 95.9543 160.39 76.4578 163.128 59.656C141.193 36.9217 99.7208 9.77337 74.1554 28.4957V28.4655ZM102.038 70.4147C100.573 71.8627 98.1763 71.8023 94.8665 71.7219L91.8576 71.6716V103.888C91.1054 103.888 80.9856 103.888 80.2233 103.888V71.6817H69.3613V62.3708C70.1737 62.3708 103.171 62.3708 103.993 62.3708C103.943 66.624 103.352 69.1378 102.048 70.4047L102.038 70.4147ZM126.369 104.883C112.499 104.883 105.759 97.7743 105.759 83.1343C105.759 68.4943 112.89 61.3653 126.369 61.3653C139.849 61.3653 146.98 68.4842 146.98 83.1343C146.98 97.7843 139.859 104.883 126.369 104.883Z" fill="#007AAE"/>
<path d="M152.025 17.1034C131.946 4.10239 38.6105 -9.26063 12.2025 31.7133C4.47976 43.6988 3.37651 59.0024 6.13464 74.9898C8.7624 66.2219 16.074 61.3351 27.1266 61.3351C30.4765 61.3351 34.7792 62.1194 37.7479 63.2255C37.6376 63.8589 36.2435 71.6415 36.1031 72.4459C33.7662 71.742 29.965 70.6963 27.7384 70.6963C20.5171 70.6963 17.1572 74.5876 17.1572 82.9332C17.1572 88.1617 18.2002 95.0997 27.277 95.0997C28.27 95.0997 29.2629 94.9991 30.2257 94.8382L31.0983 103.878C29.7243 104.089 28.2399 104.23 26.7254 104.23C21.3796 104.23 17.0769 103.335 13.7471 101.525C25.3814 131.297 45.4406 158.375 56.413 165.484C52.5516 157.008 49.2418 135.953 49.0814 112.535C43.8961 111.389 37.8081 108.252 37.8081 99.8758C37.8081 93.4808 40.7267 90.1225 43.5551 86.8747C45.9521 84.1197 48.2088 81.5255 48.2188 77.4231C48.2188 77.4231 48.2188 74.0446 48.2188 73.3508H52.1805C52.5616 71.2393 52.9729 69.1579 53.4342 67.1167C50.0542 66.8352 47.3763 64.0198 47.3763 60.5408C47.3763 57.0618 50.3351 53.9247 53.9758 53.9247C55.059 53.9247 56.072 54.2162 56.9747 54.6788C60.8862 43.4575 66.4426 34.1164 74.1453 28.4756C99.7108 9.75327 141.193 36.9016 163.118 59.6359C166.307 40.0388 162.817 24.1117 152.015 17.1135" fill="#00B8DF"/>
</g>
<defs>
<clipPath id="clip0_412_90">
<rect width="183" height="183" fill="white"/>
</clipPath>
</defs>
</svg>
