<svg width="53" height="62" viewBox="0 0 53 62" fill="none" xmlns="http://www.w3.org/2000/svg">
<g id="Group 23">
<g id="Mask group">
<mask id="mask0_3924_4858" style="mask-type:luminance" maskUnits="userSpaceOnUse" x="11" y="52" width="31" height="10">
<g id="Group">
<path id="Vector" d="M26.5001 61.5C35.0336 61.5 41.9514 59.3808 41.9514 56.7667C41.9514 54.1525 35.0336 52.0333 26.5001 52.0333C17.9666 52.0333 11.0488 54.1525 11.0488 56.7667C11.0488 59.3808 17.9666 61.5 26.5001 61.5Z" fill="white"/>
</g>
</mask>
<g mask="url(#mask0_3924_4858)">
<path id="Oval-10" d="M26.5001 61.5C35.0336 61.5 41.9514 59.3808 41.9514 56.7667C41.9514 54.1525 35.0336 52.0333 26.5001 52.0333C17.9666 52.0333 11.0488 54.1525 11.0488 56.7667C11.0488 59.3808 17.9666 61.5 26.5001 61.5Z" stroke="#C1DFEF" stroke-width="2.8" stroke-linecap="square" stroke-dasharray="3 6 3 5"/>
</g>
</g>
<path id="Path-195" fill-rule="evenodd" clip-rule="evenodd" d="M34.9616 13.1643L27.4893 29.9142L27.5002 42.0001L29.098 41.5168V29.9142L47.5676 10.7561C47.5676 10.7561 45.1298 11.6544 41.4631 12.3393C37.7965 13.0242 34.9616 13.1643 34.9616 13.1643Z" fill="#C1DFEF"/>
<path id="Path-149" fill-rule="evenodd" clip-rule="evenodd" d="M1.24662 7.5662L1.12088 7.16055L1.85177 6.16252L2.27645 6.15995L2.70959 7.55736L1.24662 7.5662ZM2.70959 7.55736L2.82565 7.93181L24.9966 29.8797V42.8097L29.1002 41.4837V29.8993L50.4737 7.7036V7.26883L2.70959 7.55736ZM51.8737 5.86035V8.26808L30.5002 30.4637V42.5026L23.5966 44.7333V30.4637L1.59202 8.68056L0.813477 6.16879L51.8737 5.86035Z" fill="#7FBDDD"/>
<path id="Oval-9" d="M26.5 13.5713C40.8594 13.5713 52.5 10.5333 52.5 6.78565C52.5 3.03804 40.8594 0 26.5 0C12.1406 0 0.5 3.03804 0.5 6.78565C0.5 10.5333 12.1406 13.5713 26.5 13.5713Z" fill="white"/>
<path id="Oval-9-Copy" fill-rule="evenodd" clip-rule="evenodd" d="M26.5 12.1713C33.3772 12.1713 39.8112 11.4611 44.5312 10.2292C46.7778 9.6429 48.5508 8.95797 49.7216 8.2355C50.6939 7.63559 51.1 7.11759 51.1 6.78565C51.1 6.45372 50.6939 5.93572 49.7216 5.33581C48.5508 4.61334 46.7778 3.92841 44.5312 3.3421C39.8112 2.11024 33.3772 1.4 26.5 1.4C19.6228 1.4 13.1888 2.11024 8.46876 3.3421C6.22224 3.92841 4.44924 4.61334 3.27838 5.33581C2.30614 5.93572 1.9 6.45372 1.9 6.78565C1.9 7.11759 2.30614 7.63559 3.27838 8.2355C4.44924 8.95797 6.22224 9.6429 8.46876 10.2292C13.1888 11.4611 19.6228 12.1713 26.5 12.1713ZM26.5 13.5713C12.1406 13.5713 0.5 10.5333 0.5 6.78565C0.5 3.03804 12.1406 0 26.5 0C40.8594 0 52.5 3.03804 52.5 6.78565C52.5 10.5333 40.8594 13.5713 26.5 13.5713Z" fill="#7FBDDD"/>
<path id="Path-196" fill-rule="evenodd" clip-rule="evenodd" d="M14.7607 2.14563L19.2272 11.9047C19.2272 11.9047 11.8005 11.3912 6.77588 9.75116C1.75122 8.11115 1.88019 6.82843 1.88019 6.68829C1.88019 5.48328 4.66621 4.41878 7.61444 3.57324C11.0492 2.58817 14.7607 2.14563 14.7607 2.14563Z" fill="#C1DFEF"/>
</g>
</svg>
